<mxfile host="65bd71144e" modified="2023-11-23T11:00:30.092Z" agent="Mozilla/5.0 (Windows NT 10.0; Win64; x64) AppleWebKit/537.36 (KHTML, like Gecko) Code/1.84.2 Chrome/114.0.5735.289 Electron/25.9.2 Safari/537.36" version="22.1.3" etag="-Ac0pVKXKzhU0ubvzvnm" type="embed">
    <diagram id="vJYV673TWn68nu8cjQHZ" name="Page-1">
        <mxGraphModel dx="1613" dy="809" grid="1" gridSize="10" guides="1" tooltips="1" connect="1" arrows="1" fold="1" page="1" pageScale="1" pageWidth="850" pageHeight="1100" math="0" shadow="0">
            <root>
                <mxCell id="0"/>
                <mxCell id="1" parent="0"/>
                <mxCell id="32" value="" style="rounded=0;whiteSpace=wrap;html=1;fontSize=18;dashed=1;fillColor=#CCCCCC;strokeColor=none;" vertex="1" parent="1">
                    <mxGeometry x="110" y="250" width="830" height="70" as="geometry"/>
                </mxCell>
                <mxCell id="31" value="" style="rounded=0;whiteSpace=wrap;html=1;fontSize=18;dashed=1;fillColor=#E6E6E6;strokeColor=none;" vertex="1" parent="1">
                    <mxGeometry x="110" y="150" width="830" height="100" as="geometry"/>
                </mxCell>
                <mxCell id="19" value="" style="endArrow=none;html=1;fontSize=20;entryX=0;entryY=0.5;entryDx=0;entryDy=0;startArrow=none;" parent="1" edge="1">
                    <mxGeometry width="50" height="50" relative="1" as="geometry">
                        <mxPoint x="210" y="230" as="sourcePoint"/>
                        <mxPoint x="520" y="230" as="targetPoint"/>
                    </mxGeometry>
                </mxCell>
                <mxCell id="2" value="Sender" style="text;html=1;strokeColor=none;fillColor=none;align=center;verticalAlign=middle;whiteSpace=wrap;rounded=0;fontSize=20;" parent="1" vertex="1">
                    <mxGeometry x="120" y="185" width="60" height="30" as="geometry"/>
                </mxCell>
                <mxCell id="3" value="Receiver" style="text;html=1;strokeColor=none;fillColor=none;align=center;verticalAlign=middle;whiteSpace=wrap;rounded=0;fontSize=20;" parent="1" vertex="1">
                    <mxGeometry x="130" y="269" width="60" height="30" as="geometry"/>
                </mxCell>
                <mxCell id="4" value="" style="endArrow=none;html=1;fontSize=20;startArrow=none;" parent="1" edge="1">
                    <mxGeometry width="50" height="50" relative="1" as="geometry">
                        <mxPoint x="210" y="180" as="sourcePoint"/>
                        <mxPoint x="520" y="183" as="targetPoint"/>
                    </mxGeometry>
                </mxCell>
                <mxCell id="5" value="" style="endArrow=none;html=1;fontSize=20;entryX=0;entryY=0.5;entryDx=0;entryDy=0;" parent="1" target="24" edge="1">
                    <mxGeometry width="50" height="50" relative="1" as="geometry">
                        <mxPoint x="210" y="284" as="sourcePoint"/>
                        <mxPoint x="510" y="284" as="targetPoint"/>
                    </mxGeometry>
                </mxCell>
                <mxCell id="6" value="Create&lt;br&gt;EPR" style="rounded=0;whiteSpace=wrap;html=1;fontSize=20;" parent="1" vertex="1">
                    <mxGeometry x="400" y="210" width="80" height="100" as="geometry"/>
                </mxCell>
                <mxCell id="9" value="BSM" style="rounded=0;whiteSpace=wrap;html=1;fontSize=20;fillColor=default;" parent="1" vertex="1">
                    <mxGeometry x="500" y="170" width="90" height="70" as="geometry"/>
                </mxCell>
                <mxCell id="10" value="" style="endArrow=none;html=1;fontSize=20;exitX=1;exitY=0.5;exitDx=0;exitDy=0;" parent="1" edge="1">
                    <mxGeometry width="50" height="50" relative="1" as="geometry">
                        <mxPoint x="590" y="181.88" as="sourcePoint"/>
                        <mxPoint x="655" y="181.88" as="targetPoint"/>
                    </mxGeometry>
                </mxCell>
                <mxCell id="11" value="" style="endArrow=none;html=1;fontSize=20;exitX=1;exitY=0.5;exitDx=0;exitDy=0;" parent="1" edge="1">
                    <mxGeometry width="50" height="50" relative="1" as="geometry">
                        <mxPoint x="590" y="177.64" as="sourcePoint"/>
                        <mxPoint x="655" y="177.88" as="targetPoint"/>
                    </mxGeometry>
                </mxCell>
                <mxCell id="15" value="Init" style="rounded=0;whiteSpace=wrap;html=1;fontSize=20;fillColor=default;" parent="1" vertex="1">
                    <mxGeometry x="230" y="160" width="50" height="40" as="geometry"/>
                </mxCell>
                <mxCell id="17" value="Rotate" style="rounded=0;whiteSpace=wrap;html=1;fontSize=20;fillColor=default;" parent="1" vertex="1">
                    <mxGeometry x="300" y="160" width="80" height="40" as="geometry"/>
                </mxCell>
                <mxCell id="21" value="" style="endArrow=none;html=1;fontSize=20;exitX=1;exitY=0.5;exitDx=0;exitDy=0;" parent="1" edge="1">
                    <mxGeometry width="50" height="50" relative="1" as="geometry">
                        <mxPoint x="590" y="231.88000000000005" as="sourcePoint"/>
                        <mxPoint x="655" y="231.88000000000005" as="targetPoint"/>
                    </mxGeometry>
                </mxCell>
                <mxCell id="22" value="" style="endArrow=none;html=1;fontSize=20;exitX=1;exitY=0.5;exitDx=0;exitDy=0;" parent="1" edge="1">
                    <mxGeometry width="50" height="50" relative="1" as="geometry">
                        <mxPoint x="590" y="227.64000000000004" as="sourcePoint"/>
                        <mxPoint x="655" y="227.88000000000005" as="targetPoint"/>
                    </mxGeometry>
                </mxCell>
                <mxCell id="24" value="Correction" style="rounded=0;whiteSpace=wrap;html=1;fontSize=20;fillColor=default;" parent="1" vertex="1">
                    <mxGeometry x="600" y="264" width="110" height="40" as="geometry"/>
                </mxCell>
                <mxCell id="25" value="" style="endArrow=none;html=1;" parent="1" edge="1">
                    <mxGeometry width="50" height="50" relative="1" as="geometry">
                        <mxPoint x="655" y="263" as="sourcePoint"/>
                        <mxPoint x="655" y="178" as="targetPoint"/>
                    </mxGeometry>
                </mxCell>
                <mxCell id="26" value="" style="endArrow=none;html=1;" parent="1" edge="1">
                    <mxGeometry width="50" height="50" relative="1" as="geometry">
                        <mxPoint x="651" y="264" as="sourcePoint"/>
                        <mxPoint x="651" y="178" as="targetPoint"/>
                    </mxGeometry>
                </mxCell>
                <mxCell id="27" value="" style="endArrow=none;html=1;fontSize=20;exitX=1;exitY=0.5;exitDx=0;exitDy=0;" parent="1" source="24" edge="1">
                    <mxGeometry width="50" height="50" relative="1" as="geometry">
                        <mxPoint x="710" y="294" as="sourcePoint"/>
                        <mxPoint x="770" y="284" as="targetPoint"/>
                    </mxGeometry>
                </mxCell>
                <mxCell id="28" value="Measure" style="rounded=0;whiteSpace=wrap;html=1;fontSize=20;fillColor=default;" parent="1" vertex="1">
                    <mxGeometry x="770" y="264" width="90" height="40" as="geometry"/>
                </mxCell>
                <mxCell id="29" value="" style="endArrow=none;html=1;fontSize=20;exitX=1;exitY=0.5;exitDx=0;exitDy=0;" parent="1" edge="1">
                    <mxGeometry width="50" height="50" relative="1" as="geometry">
                        <mxPoint x="860" y="285.7000000000001" as="sourcePoint"/>
                        <mxPoint x="925" y="285.7000000000001" as="targetPoint"/>
                    </mxGeometry>
                </mxCell>
                <mxCell id="30" value="" style="endArrow=none;html=1;fontSize=20;exitX=1;exitY=0.5;exitDx=0;exitDy=0;" parent="1" edge="1">
                    <mxGeometry width="50" height="50" relative="1" as="geometry">
                        <mxPoint x="860" y="281.4600000000001" as="sourcePoint"/>
                        <mxPoint x="925" y="281.7000000000001" as="targetPoint"/>
                    </mxGeometry>
                </mxCell>
            </root>
        </mxGraphModel>
    </diagram>
</mxfile>